# xmcd
#
# Track frame offsets:
#	150
#	14325
#	31227
#	44481
#	60945
#	75486
#	94362
#	108243
#	123178
#	140934
#	155556
#
# Disc length: 2686 seconds
#
# Revision: 1
# Processed by: cddbd v1.5.2PL0 Copyright (c) Steve Scherf et al.
# Submitted via: audiograbber 1.83.01
#
DISCID=8a0a7c0b
DTITLE=Mighty 44 - Sky Rockers
DYEAR=2007
DGENRE=Electronic
TTITLE0=Another Anthem
TTITLE1=Turn It Loud
TTITLE2=I Don't Care
TTITLE3=Sky Rockers
TTITLE4=Same Thing We Believe
TTITLE5=I'm Sorry Mama
TTITLE6=Color TV
TTITLE7=What's Your Number
TTITLE8=Don't Stop
TTITLE9=I Am
TTITLE10=Mega Blast
EXTD=TR.
EXTT0=
EXTT1=
EXTT2=
EXTT3=
EXTT4=
EXTT5=
EXTT6=
EXTT7=
EXTT8=
EXTT9=
EXTT10=
PLAYORDER=
